<svg width="432" height="495" viewBox="0 0 432 495" fill="none" xmlns="http://www.w3.org/2000/svg">
<path fill-rule="evenodd" clip-rule="evenodd" d="M188.862 84.3672H206.377V90.512H189.376C188.578 90.6986 187.871 91.3099 187.265 92.5834C186.612 93.956 186.34 95.6188 186.31 96.6951V105.298C186.31 106.871 186.467 107.85 186.616 108.411L188.039 108.648V114.76L186.296 115.382C186.272 116.407 186.253 117.926 186.283 118.929C186.411 119.037 186.572 119.15 186.747 119.257C186.927 119.366 187.082 119.444 187.174 119.485L189.533 120.533L188.907 123.037C187.47 128.784 185.883 131.471 184.556 133.716L184.539 133.745C183.943 134.754 181.778 137.765 179.489 140.903C177.156 144.1 174.523 147.658 172.789 149.985C170.295 153.749 164.068 164.997 159.575 179.376C157.423 186.263 156.934 194.756 157.264 202.729C157.592 210.667 158.72 217.84 159.641 221.954L153.644 223.297C152.645 218.834 151.468 211.297 151.124 202.983C150.782 194.705 151.254 185.404 153.71 177.543C158.408 162.511 164.937 150.686 167.72 146.511L167.764 146.445L167.812 146.38C169.537 144.065 172.185 140.488 174.525 137.281C176.93 133.984 178.847 131.299 179.249 130.618C179.272 130.579 179.295 130.54 179.318 130.501C180.285 128.866 181.33 127.098 182.365 123.663C182.343 123.645 182.321 123.626 182.299 123.608C181.604 123.017 180.292 121.724 180.172 119.795C180.085 118.403 180.136 115.779 180.167 114.713L180.176 114.421L180.239 114.137C180.376 113.52 180.673 112.716 181.173 111.949C181.22 111.877 181.271 111.802 181.325 111.726C181.216 111.513 181.118 111.293 181.029 111.068C180.476 109.672 180.166 107.785 180.166 105.298V96.6215L180.166 96.5862C180.206 94.877 180.597 92.2965 181.717 89.9432C182.844 87.5733 184.972 84.9606 188.631 84.4023L188.862 84.3672ZM157.315 373.653L157.315 373.661C157.314 373.834 157.301 375.977 158.647 380.91C159.898 385.498 163.353 391.168 169.19 396.55C172.007 399.146 174.424 400.543 176.666 401.358C178.935 402.182 181.186 402.471 183.837 402.657C187.215 402.894 190.181 401.214 191.07 400.476L193.246 398.672L195.225 400.69C196.59 402.083 198.598 402.997 200.787 403.517C202.959 404.034 205.013 404.091 206.136 404.003L206.618 410.129C204.893 410.264 202.194 410.168 199.366 409.496C197.25 408.993 194.892 408.127 192.8 406.654C190.551 407.875 187.205 409.053 183.407 408.786C180.585 408.589 177.652 408.253 174.568 407.133C171.457 406.003 168.354 404.136 165.025 401.068C158.573 395.12 154.347 388.5 152.718 382.527C151.21 376.997 151.17 374.325 151.17 373.653V344.177H157.315V373.653Z" fill="#FFFDFF"/>
<path fill-rule="evenodd" clip-rule="evenodd" d="M223.699 84.3672H206.184V90.512H223.186C223.983 90.6986 224.69 91.3099 225.296 92.5834C225.949 93.956 226.222 95.6188 226.251 96.6951V105.298C226.251 106.871 226.094 107.85 225.945 108.411L224.523 108.648V114.76L226.265 115.382C226.289 116.407 226.308 117.926 226.278 118.929C226.15 119.037 225.989 119.15 225.814 119.257C225.634 119.366 225.479 119.444 225.387 119.485L223.028 120.533L223.654 123.037C225.091 128.784 226.679 131.471 228.005 133.716L228.022 133.745C228.619 134.754 230.783 137.765 233.073 140.903C235.406 144.1 238.039 147.658 239.772 149.985C242.267 153.749 248.493 164.997 252.986 179.376C255.138 186.263 255.627 194.756 255.297 202.729C254.969 210.667 253.842 217.84 252.921 221.954L258.917 223.297C259.916 218.834 261.093 211.297 261.437 202.983C261.779 194.705 261.308 185.404 258.851 177.543C254.154 162.511 247.625 150.686 244.841 146.511L244.797 146.445L244.749 146.38C243.025 144.065 240.376 140.488 238.036 137.281C235.631 133.984 233.715 131.299 233.313 130.618C233.289 130.579 233.266 130.54 233.243 130.501C232.276 128.866 231.231 127.098 230.196 123.663C230.218 123.645 230.24 123.626 230.262 123.608C230.958 123.017 232.269 121.724 232.39 119.795C232.477 118.403 232.426 115.779 232.394 114.713L232.386 114.421L232.322 114.137C232.185 113.52 231.888 112.716 231.388 111.949C231.341 111.877 231.29 111.802 231.236 111.726C231.345 111.513 231.443 111.293 231.532 111.068C232.085 109.672 232.396 107.785 232.396 105.298V96.6215L232.395 96.5862C232.356 94.877 231.964 92.2965 230.845 89.9432C229.717 87.5733 227.589 84.9606 223.93 84.4023L223.699 84.3672ZM255.247 373.653L255.247 373.661C255.248 373.834 255.26 375.977 253.915 380.91C252.663 385.498 249.208 391.168 243.371 396.55C240.555 399.146 238.137 400.543 235.895 401.358C233.626 402.182 231.375 402.471 228.724 402.657C225.346 402.894 222.381 401.214 221.491 400.476L219.315 398.672L217.336 400.69C215.971 402.083 213.963 402.997 211.774 403.517C209.603 404.034 207.548 404.091 206.425 404.003L205.943 410.129C207.669 410.264 210.367 410.168 213.196 409.496C215.311 408.993 217.669 408.127 219.761 406.654C222.011 407.875 225.357 409.053 229.154 408.786C231.976 408.589 234.91 408.253 237.993 407.133C241.104 406.003 244.207 404.136 247.536 401.068C253.988 395.12 258.214 388.5 259.843 382.527C261.351 376.997 261.391 374.325 261.391 373.653V344.177H255.247V373.653Z" fill="#FFFDFF"/>
<path d="M258.031 232.118C244.772 219.207 226.919 212.289 208.419 211.795C189.92 211.301 173.334 216.461 159.405 228.646C145.477 240.831 137.468 256.156 135.497 274.557C133.527 292.957 139.409 312.897 150.442 327.755L161.241 316.003C153.037 304.955 148.977 292.424 150.442 278.741C151.907 265.058 158.612 251.34 168.969 242.279C179.326 233.218 192.894 228.279 206.651 228.646C220.407 229.013 236.217 235.668 246.076 245.268L258.031 232.118Z" fill="#FFFDFF"/>
<path fill-rule="evenodd" clip-rule="evenodd" d="M253.715 232.298C241.309 221.267 225.136 215.315 208.337 214.866C190.509 214.39 174.704 219.345 161.428 230.958C148.077 242.638 140.44 257.256 138.552 274.884C136.801 291.241 141.556 308.976 150.763 322.865L157.292 315.76C149.681 304.676 145.921 292.104 147.387 278.414C148.928 264.023 155.964 249.574 166.946 239.967C177.879 230.402 192.197 225.187 206.733 225.575C220.211 225.934 235.429 231.955 245.874 240.923L253.715 232.298ZM258.031 232.118C244.772 219.207 226.919 212.289 208.419 211.795C189.92 211.301 173.334 216.461 159.405 228.646C145.477 240.831 137.468 256.156 135.497 274.557C133.638 291.919 138.77 310.652 148.624 325.192C149.213 326.062 149.82 326.916 150.442 327.755L161.241 316.003C153.037 304.955 148.977 292.424 150.442 278.741C151.907 265.058 158.612 251.34 168.969 242.279C179.326 233.218 192.894 228.279 206.651 228.646C219.394 228.986 233.901 234.722 243.806 243.198C244.593 243.871 245.351 244.561 246.076 245.268L258.031 232.118Z" fill="#FFFDFF"/>
<path d="M221.568 246.465L232.443 234.339L248.573 242.501L226.202 266.6C185.078 249.385 181.121 276.551 184.509 293.088L174.945 302.652C171.598 302.652 170.363 299.464 170.163 297.87C162.034 244.791 201.046 241.484 221.568 246.465Z" fill="#FFFDFF"/>
<path d="M154.344 332.065C167.723 344.85 185.641 351.6 204.145 351.92C222.648 352.239 239.185 346.923 252.998 334.608C266.811 322.292 274.675 306.892 276.472 288.474C278.269 270.055 272.199 250.172 261.027 235.419L250.339 247.272C258.647 258.242 262.825 270.735 261.489 284.431C260.152 298.127 253.577 311.907 243.306 321.065C233.035 330.223 219.514 335.29 205.754 335.053C191.995 334.815 176.123 328.31 166.174 318.803L154.344 332.065Z" fill="#FFFDFF"/>
<path fill-rule="evenodd" clip-rule="evenodd" d="M158.658 331.845C171.167 342.758 187.396 348.558 204.198 348.848C222.029 349.156 237.788 344.053 250.953 332.315C264.193 320.51 271.693 305.821 273.414 288.176C275.011 271.803 270.089 254.113 260.752 240.311L254.29 247.478C262.005 258.49 265.883 271.025 264.546 284.729C263.141 299.134 256.242 313.648 245.351 323.359C234.508 333.025 220.24 338.376 205.701 338.125C192.221 337.892 176.946 332.014 166.417 323.145L158.658 331.845ZM154.344 332.065C167.723 344.85 185.641 351.6 204.145 351.92C222.648 352.239 239.185 346.923 252.998 334.608C266.811 322.292 274.675 306.892 276.472 288.474C278.168 271.095 272.859 252.411 262.869 237.964C262.272 237.1 261.657 236.251 261.027 235.419L250.339 247.272C258.647 258.242 262.825 270.735 261.489 284.431C260.152 298.127 253.577 311.907 243.306 321.065C233.035 330.223 219.514 335.29 205.754 335.053C193.008 334.833 178.448 329.233 168.463 320.852C167.67 320.186 166.906 319.503 166.174 318.803L154.344 332.065Z" fill="#FFFDFF"/>
<path d="M190.668 317.378L178.677 331.12L163.027 322.287L185.686 297.227C226.97 314.054 230.83 286.912 227.287 270.407L236.76 260.754C240.107 260.723 241.372 263.899 241.586 265.491C250.215 318.49 211.236 322.165 190.668 317.378Z" fill="#FFFDFF"/>
<path fill-rule="evenodd" clip-rule="evenodd" d="M359.501 145.445L212.654 55.7802C208.476 53.2292 203.222 53.2292 199.044 55.7802L52.1976 145.445C48.3137 147.816 45.9446 152.038 45.9446 156.589V337.82C45.9446 342.37 48.3137 346.592 52.1976 348.964L199.044 438.628C203.222 441.179 208.476 441.179 212.654 438.628L359.501 348.964C363.385 346.592 365.754 342.37 365.754 337.82V156.589C365.754 152.038 363.385 147.816 359.501 145.445ZM215.856 50.5358C209.712 46.7843 201.986 46.7843 195.842 50.5358L48.9953 140.2C43.2838 143.688 39.7998 149.897 39.7998 156.589V337.82C39.7998 344.512 43.2838 350.721 48.9953 354.208L195.842 443.873C201.986 447.624 209.712 447.624 215.856 443.873L362.703 354.208C368.415 350.721 371.899 344.512 371.899 337.82V156.589C371.899 149.897 368.415 143.688 362.703 140.2L215.856 50.5358Z" fill="#FFFDFF"/>
<path fill-rule="evenodd" clip-rule="evenodd" d="M84.5535 77.389L13.8811 120.455C9.07639 123.383 6.14457 128.603 6.14457 134.229V360.098C6.14457 365.718 9.06919 370.932 13.8644 373.862L77.7398 412.893L74.5358 418.136L10.6604 379.106C4.03852 375.06 -0.000244141 367.859 -0.000244141 360.098V134.229C-0.000244141 126.459 4.04847 119.251 10.6835 115.208L81.3559 72.1417L84.5535 77.389Z" fill="#FFFDFF"/>
<path d="M80.0162 102.194C77.8898 101.741 76.5633 99.6143 77.0914 97.5052L81.8281 78.5856C82.3548 76.4817 81.0361 74.3593 78.9165 73.8996L59.856 69.7663C57.7312 69.3055 56.4122 67.1743 56.9477 65.0671L57.1389 64.3146C57.6483 62.3101 59.6537 61.0689 61.675 61.5072L89.2404 67.4849C91.36 67.9445 92.6788 70.067 92.152 72.1709L85.3017 99.5325C84.7994 101.539 82.7984 102.787 80.7756 102.356L80.0162 102.194Z" fill="#FFFDFF"/>
<path fill-rule="evenodd" clip-rule="evenodd" d="M214.161 8.50165C209 5.35586 202.514 5.3591 197.356 8.51004L119.504 56.072L116.301 50.8283L194.152 3.26636C201.275 -1.08494 210.232 -1.08941 217.359 3.25478L401.02 115.207C407.654 119.251 411.701 126.458 411.701 134.227V219.552H405.556V134.227C405.556 128.601 402.625 123.382 397.822 120.454L214.161 8.50165Z" fill="#FFFDFF"/>
<path d="M386.679 203.794C388.186 202.227 390.693 202.222 392.206 203.784L405.775 217.796C407.284 219.354 409.784 219.354 411.293 217.796L424.862 203.784C426.375 202.222 428.882 202.227 430.389 203.794L430.928 204.354C432.362 205.845 432.357 208.203 430.919 209.688L411.293 229.953C409.784 231.512 407.284 231.511 405.775 229.953L386.149 209.688C384.71 208.203 384.706 205.845 386.14 204.354L386.679 203.794Z" fill="#FFFDFF"/>
<path fill-rule="evenodd" clip-rule="evenodd" d="M405.364 359.816V274.759H411.509V359.816C411.509 367.572 407.475 374.77 400.858 378.818L217.28 491.12C210.147 495.484 201.17 495.485 194.035 491.122L122.252 447.227L125.458 441.985L197.241 485.88C202.407 489.039 208.908 489.039 214.074 485.879L397.652 373.576C402.443 370.645 405.364 365.433 405.364 359.816Z" fill="#FFFDFF"/>
<path d="M151.017 438.058C151.29 440.215 149.719 442.168 147.554 442.365L128.13 444.125C125.97 444.321 124.4 446.265 124.664 448.418L127.041 467.776C127.306 469.934 125.729 471.882 123.563 472.07L122.789 472.138C120.729 472.317 118.896 470.833 118.644 468.78L115.207 440.784C114.942 438.631 116.512 436.687 118.672 436.491L146.763 433.945C148.823 433.758 150.66 435.236 150.92 437.288L151.017 438.058Z" fill="#FFFDFF"/>
</svg>
